<?xml version="1.0" encoding="utf-8"?>
<!-- Generator: Adobe Illustrator 16.0.0, SVG Export Plug-In . SVG Version: 6.00 Build 0)  -->
<!DOCTYPE svg PUBLIC "-//W3C//DTD SVG 1.1//EN" "http://www.w3.org/Graphics/SVG/1.1/DTD/svg11.dtd">
<svg version="1.1" id="Layer_1" xmlns="http://www.w3.org/2000/svg" xmlns:xlink="http://www.w3.org/1999/xlink" x="0px" y="0px"
	 width="100px" height="100px" viewBox="0 0 100 100" enable-background="new 0 0 100 100" xml:space="preserve">
<polygon fill="#00005B" points="83,17 83,14 78,14 78,12 25,12 25,14 20,14 20,17 15,17 15,22 15,78 17,78 17,80 22,80 22,83 25,83 
	25,85 78,85 78,83 81,83 81,80 86,80 86,78 88,78 88,22 88,17 "/>
<g>
	<g>
		<path fill="#9999FF" d="M52.519,58.5h-1.524v-4H49.47v-4h-1.524v-4h-1.524v-4h-1.524v-4h-1.524v-4h-0.127h-1.397v-4h-0.127H38.8
			h-0.127v4h-1.524v4h-1.524v4h-1.524v4h-1.524v4h-1.524v4h-1.524v4h-1.524v4h-1.524v4h4.573v-4h1.524v-4h1.524v-4h1.524h9.272
			h1.524v4h1.524v4h1.524v4h4.573v-4h-1.524V58.5z M35.625,50.5v-4h1.524v-4h1.524v-4h1.524h0.126h1.524v4h1.524v4h1.524v4H35.625z"
			/>
	</g>
</g>
<rect x="56.5" y="48.5" fill="#9999FF" width="22" height="4"/>
<rect x="76.5" y="44.5" fill="#9999FF" width="4" height="4"/>
<rect x="74.5" y="40.5" fill="#9999FF" width="4" height="4"/>
<rect x="68.5" y="36.5" fill="#9999FF" width="4" height="4"/>
<rect x="70.5" y="36.5" fill="#9999FF" width="4" height="4"/>
<rect x="64.5" y="36.5" fill="#9999FF" width="4" height="4"/>
<rect x="60.5" y="36.5" fill="#9999FF" width="4" height="4"/>
<rect x="58.5" y="40.5" fill="#9999FF" width="4" height="4"/>
<rect x="56.5" y="44.5" fill="#9999FF" width="4" height="4"/>
<rect x="56.5" y="52.5" fill="#9999FF" width="4" height="4"/>
<rect x="60.5" y="56.5" fill="#9999FF" width="4" height="4"/>
<rect x="58.5" y="56.5" fill="#9999FF" width="4" height="4"/>
<rect x="64.5" y="60.5" fill="#9999FF" width="4" height="4"/>
<rect x="62.5" y="60.5" fill="#9999FF" width="4" height="4"/>
<rect x="68.5" y="60.5" fill="#9999FF" width="4" height="4"/>
<rect x="70.5" y="60.5" fill="#9999FF" width="4" height="4"/>
<rect x="74.5" y="56.5" fill="#9999FF" width="4" height="4"/>
<rect x="72.5" y="58.5" fill="#9999FF" width="4" height="4"/>
</svg>
