<?xml version="1.0" encoding="utf-8"?>
<!-- Generator: Adobe Illustrator 27.7.0, SVG Export Plug-In . SVG Version: 6.00 Build 0)  -->
<svg version="1.1" id="Layer_1" xmlns="http://www.w3.org/2000/svg" xmlns:xlink="http://www.w3.org/1999/xlink" x="0px" y="0px"
	 viewBox="0 0 100 100" style="enable-background:new 0 0 100 100;" xml:space="preserve">
<style type="text/css">
	.st0{fill:#2B2C35;}
	.st1{fill:#F04F23;}
	.st2{fill:#F37264;}
	.st3{fill:#8062AA;}
	.st4{fill:#45B7E9;}
	.st5{fill:#47BA7E;}
</style>
<polygon class="st0" points="82,19.3 82,16.3 77,16.3 77,14.3 24,14.3 24,16.3 19,16.3 19,19.3 14,19.3 14,24.3 14,80.3 16,80.3 
	16,82.3 21,82.3 21,85.3 24,85.3 24,87.3 77,87.3 77,85.3 80,85.3 80,82.3 85,82.3 85,80.3 87,80.3 87,24.3 87,19.3 "/>
<rect x="39.9" y="27.9" class="st1" width="10.6" height="5.3"/>
<rect x="39.9" y="38.5" class="st1" width="10.6" height="5.3"/>
<rect x="37.2" y="35.8" class="st1" width="10.6" height="5.3"/>
<rect x="37.2" y="30.5" class="st1" width="10.6" height="5.3"/>
<rect x="50.5" y="38.5" class="st2" width="10.6" height="5.3"/>
<rect x="50.5" y="27.9" class="st2" width="10.6" height="5.3"/>
<rect x="53.1" y="30.5" class="st2" width="10.6" height="5.3"/>
<rect x="53.1" y="35.6" class="st2" width="10.6" height="5.3"/>
<rect x="39.9" y="43.8" class="st3" width="10.6" height="5.3"/>
<rect x="55.8" y="43.8" class="st4" width="5.3" height="5.3"/>
<rect x="53.1" y="46.3" class="st4" width="5.3" height="5.3"/>
<rect x="53.1" y="51.8" class="st4" width="5.3" height="5.3"/>
<rect x="58.5" y="46.5" class="st4" width="5.3" height="5.3"/>
<rect x="58.5" y="51.8" class="st4" width="5.3" height="5.3"/>
<rect x="55.8" y="54.5" class="st4" width="5.3" height="5.3"/>
<rect x="39.9" y="54.5" class="st3" width="10.6" height="5.3"/>
<rect x="37.2" y="52.3" class="st3" width="10.6" height="5.3"/>
<rect x="37.2" y="46.5" class="st3" width="10.6" height="5.3"/>
<rect x="39.9" y="59.8" class="st5" width="10.6" height="5.3"/>
<rect x="37.2" y="62.4" class="st5" width="10.6" height="5.3"/>
<rect x="37.2" y="67.7" class="st5" width="10.6" height="5.3"/>
<rect x="38.9" y="67.7" class="st5" width="10.6" height="5.3"/>
<rect x="39.9" y="70.4" class="st5" width="8" height="5.3"/>
<rect x="34.5" y="33.2" class="st1" width="15.9" height="5.3"/>
<rect x="34.5" y="49.1" class="st3" width="15.9" height="5.3"/>
<rect x="50.5" y="49.1" class="st4" width="15.9" height="5.3"/>
<rect x="34.5" y="65.1" class="st5" width="15.9" height="5.3"/>
<rect x="50.5" y="33.2" class="st2" width="15.9" height="5.3"/>
</svg>
