<?xml version="1.0" encoding="utf-8"?>
<!-- Generator: Adobe Illustrator 16.0.0, SVG Export Plug-In . SVG Version: 6.00 Build 0)  -->
<!DOCTYPE svg PUBLIC "-//W3C//DTD SVG 1.1//EN" "http://www.w3.org/Graphics/SVG/1.1/DTD/svg11.dtd">
<svg version="1.1" id="Layer_1" xmlns="http://www.w3.org/2000/svg" xmlns:xlink="http://www.w3.org/1999/xlink" x="0px" y="0px"
	 width="100px" height="100px" viewBox="0 0 100 100" enable-background="new 0 0 100 100" xml:space="preserve">
<polygon fill="#2C1B11" points="83,17 83,14 78,14 78,12 25,12 25,14 20,14 20,17 15,17 15,22 15,78 17,78 17,80 22,80 22,83 25,83 
	25,85 78,85 78,83 81,83 81,80 86,80 86,78 88,78 88,22 88,17 "/>
<g>
	<polygon fill="#F18D2F" points="71.021,28.5 71.021,26.5 67.021,26.5 67.021,28.5 65.021,28.5 65.021,32.5 67.021,32.5 
		67.021,34.5 71.021,34.5 71.021,32.5 73.021,32.5 73.021,28.5 	"/>
	<path fill="#F18D2F" d="M61.146,56.5h-2v-4h-2v-4h-2v-4h-2v-4h-2v-4h-2v-4h-0.167h-1.833v-4h-0.167h-3.833h-0.167v4h-2v4h-2v4h-2v4
		h-2v4h-2v4h-2v4h-2v4h-2v4h6v-4h2v-4h2v-4h2h12.167h2v4h2v4h2v4h6v-4h-2V56.5z M38.979,48.5v-4h2v-4h2v-4h2h0.167h2v4h2v4h2v4
		H38.979z"/>
	<rect x="66.021" y="36.5" fill="#F18D2F" width="6" height="28"/>
</g>
</svg>
