<?xml version="1.0" encoding="utf-8"?>
<!-- Generator: Adobe Illustrator 16.0.0, SVG Export Plug-In . SVG Version: 6.00 Build 0)  -->
<!DOCTYPE svg PUBLIC "-//W3C//DTD SVG 1.1//EN" "http://www.w3.org/Graphics/SVG/1.1/DTD/svg11.dtd">
<svg version="1.1" id="Layer_1" xmlns="http://www.w3.org/2000/svg" xmlns:xlink="http://www.w3.org/1999/xlink" x="0px" y="0px"
	 width="100px" height="100px" viewBox="0 0 100 100" enable-background="new 0 0 100 100" xml:space="preserve">
<g>
	<rect x="25" y="83" fill="#00005B" width="53" height="2"/>
	<rect x="25" y="12" fill="#00005B" width="53" height="2"/>
	<polygon fill="#00005B" points="83,17 83,19 78,19 78,22 88,22 88,17 	"/>
	<polygon fill="#00005B" points="25,19 20,19 20,17 15,17 15,22 25,22 	"/>
	<rect x="25" y="19" fill="#00005B" width="53" height="3"/>
	<rect x="20" y="14" fill="#00005B" width="5" height="3"/>
	<rect x="78" y="14" fill="#00005B" width="5" height="3"/>
	<rect x="25" y="14" fill="#00005B" width="53" height="3"/>
	<rect x="78" y="17" fill="#00005B" width="5" height="2"/>
	<rect x="20" y="17" fill="#00005B" width="5" height="2"/>
	<rect x="25" y="17" fill="#00005B" width="53" height="2"/>
	<polygon fill="#00005B" points="25,22 15,22 15,78 17.433,78 25,78 	"/>
	<polygon fill="#00005B" points="78,78 85.566,78 88,78 88,22 78,22 	"/>
	<path fill="#00005B" d="M25,78h53V22H25V78z M56,40h8v3h2v-3h7v2.66V45h-2v3h-5v2h-2v15h-8V40z M36.9,33H47v2h2v3h2v12h-2v2h-2v3
		H37v10h-7V33H36.9z"/>
	<rect x="37" y="40" fill="#00005B" width="7" height="8"/>
	<polygon fill="#00005B" points="25,78 17,78 17,80 22.3,80 25,80 	"/>
	<polygon fill="#00005B" points="78,80 80.7,80 86,80 86,78 78,78 	"/>
	<rect x="25" y="78" fill="#00005B" width="53" height="2"/>
	<rect x="22" y="80" fill="#00005B" width="3" height="3"/>
	<rect x="78" y="80" fill="#00005B" width="3" height="3"/>
	<rect x="25" y="80" fill="#00005B" width="53" height="3"/>
	<polygon fill="#9999FF" points="37,65 37,54.826 37,52.394 37,49.96 37,47.526 37,40.227 37,37.793 37,35.36 37,33 30,33 30,65 	
		"/>
	<rect x="37" y="33" fill="#9999FF" width="10" height="2"/>
	<polygon fill="#9999FF" points="37,38 46.633,38 49,38 49,35 46.633,35 37,35 	"/>
	<polygon fill="#9999FF" points="47,40.227 47,47.526 47,50 49.067,50 51,50 51,38 49.067,38 47,38 	"/>
	<polygon fill="#9999FF" points="37,50 37,52 46.633,52 49,52 49,50 46.633,50 	"/>
	<rect x="37" y="52" fill="#9999FF" width="10" height="3"/>
	<polygon fill="#9999FF" points="47,48 44.2,48 37,48 37,50 47,50 	"/>
	<polygon fill="#9999FF" points="47,40 47,38 37,38 37,40 44.2,40 	"/>
	<rect x="44" y="40" fill="#9999FF" width="3" height="8"/>
	<polygon fill="#9999FF" points="64,49.96 64,47.526 64,45.094 64,42.66 64,40 56,40 56,65 64,65 	"/>
	<rect x="64" y="48" fill="#9999FF" width="2" height="2"/>
	<polygon fill="#9999FF" points="64,48 66.1,48 71,48 71,45 64,45 	"/>
	<polygon fill="#9999FF" points="70.967,45 73,45 73,43 66.1,43 64,43 64,45 	"/>
	<rect x="66" y="40" fill="#9999FF" width="7" height="3"/>
</g>
</svg>
