<?xml version="1.0" encoding="utf-8"?>
<!-- Generator: Adobe Illustrator 16.0.0, SVG Export Plug-In . SVG Version: 6.00 Build 0)  -->
<!DOCTYPE svg PUBLIC "-//W3C//DTD SVG 1.1//EN" "http://www.w3.org/Graphics/SVG/1.1/DTD/svg11.dtd">
<svg version="1.1" id="Layer_1" xmlns="http://www.w3.org/2000/svg" xmlns:xlink="http://www.w3.org/1999/xlink" x="0px" y="0px"
	 width="100px" height="100px" viewBox="0 0 100 100" enable-background="new 0 0 100 100" xml:space="preserve">
<polygon fill="#FFFFFF" points="83,17 83,14 78,14 78,12 25,12 25,14 20,14 20,17 15,17 15,22 15,78 17,78 17,80 22,80 22,83 25,83 
	25,85 78,85 78,83 81,83 81,80 86,80 86,78 88,78 88,22 88,17 "/>
<g>
	<g>
		<path fill="#FFFFFF" d="M52.519,58.5h-1.524v-4H49.47v-4h-1.524v-4h-1.524v-4h-1.524v-4h-1.524v-4h-0.127h-1.397v-4h-0.127H38.8
			h-0.127v4h-1.524v4h-1.524v4h-1.524v4h-1.524v4h-1.524v4h-1.524v4h-1.524v4h-1.524v4h4.573v-4h1.524v-4h1.524v-4h1.524h9.272
			h1.524v4h1.524v4h1.524v4h4.573v-4h-1.524V58.5z M35.625,50.5v-4h1.524v-4h1.524v-4h1.524h0.126h1.524v4h1.524v4h1.524v4H35.625z"
			/>
	</g>
</g>
<rect x="56.5" y="48.5" fill="#FFFFFF" width="22" height="4"/>
<rect x="76.5" y="44.5" fill="#FFFFFF" width="4" height="4"/>
<rect x="74.5" y="40.5" fill="#FFFFFF" width="4" height="4"/>
<rect x="68.5" y="36.5" fill="#FFFFFF" width="4" height="4"/>
<rect x="70.5" y="36.5" fill="#FFFFFF" width="4" height="4"/>
<rect x="64.5" y="36.5" fill="#FFFFFF" width="4" height="4"/>
<rect x="60.5" y="36.5" fill="#FFFFFF" width="4" height="4"/>
<rect x="58.5" y="40.5" fill="#FFFFFF" width="4" height="4"/>
<rect x="56.5" y="44.5" fill="#FFFFFF" width="4" height="4"/>
<rect x="56.5" y="52.5" fill="#FFFFFF" width="4" height="4"/>
<rect x="60.5" y="56.5" fill="#FFFFFF" width="4" height="4"/>
<rect x="58.5" y="56.5" fill="#FFFFFF" width="4" height="4"/>
<rect x="64.5" y="60.5" fill="#FFFFFF" width="4" height="4"/>
<rect x="62.5" y="60.5" fill="#FFFFFF" width="4" height="4"/>
<rect x="68.5" y="60.5" fill="#FFFFFF" width="4" height="4"/>
<rect x="70.5" y="60.5" fill="#FFFFFF" width="4" height="4"/>
<rect x="74.5" y="56.5" fill="#FFFFFF" width="4" height="4"/>
<rect x="72.5" y="58.5" fill="#FFFFFF" width="4" height="4"/>
<g>
	<path fill="none" stroke="#23A8F2" stroke-miterlimit="10" d="M72,30v-1l0,0h-2v-1l0,0h-2v-1h-2v-1l0,0h-2v-1l0,0h0.883H59v1h-1v1
		h-1v1h-1v1h-1v1h-1v1l0,0h-2v1h-1v1h-1v1h-1v1h-1v1h-1v1h-1v1h-1v1h-1v1h-1v1h-1v1l0,0h-2v1h-1v-1h-1v-1h-1v-1h-1v-1h-2v-1h-1v-1
		l0,0h0.883H28v1h-1v1h-1v4h1v1h1v1h1v1h1v1h1v1h1v1h1v1l0,0h-2v1h-1v1h-1v1h-1v1h-1v1h-1v4h1v1h5.883h1h1H34l0,0l0,0v-1h2l0,0v-1h1
		v-1h1v-1h1v-1h1v1h1v1h1v1h1v1h1v1h1v1h2l0,0v1h1v1h1v1h1v1h1v1h1v1h2l0,0v1h1v1h1v1h1v1h1v1h1v1h5.883H64l0,0v-1h2l0,0v-1h2l0,0
		v-1h2l0,0v-1h2l0,0v-1h2l0,0v-5.846V30l0,0H72z M54,54v-1h-1v-1h-1v-1h-1v-1l0,0h-2v-2l0,0h1v-1h2l0,0v-1h1v-1h1v-1h2l0,0v-1h1v-1
		h1v-1h2v-1h1v-1h1v20h-1v-1l0,0h-2v-1h-1v-1h-1v-1h-1v-1l0,0H54z"/>
	<polygon fill="none" points="61.5,39.5 60.5,39.5 60.5,40.5 58.5,40.5 58.5,41.5 57.5,41.5 57.5,42.5 56.5,42.5 56.5,43.5 
		54.5,43.5 54.5,44.5 53.5,44.5 53.5,45.5 52.5,45.5 52.5,46.5 50.5,46.5 50.5,47.5 49.5,47.5 49.5,49.5 51.5,49.5 51.5,50.5 
		52.5,50.5 52.5,51.5 53.5,51.5 53.5,52.5 54.5,52.5 54.5,53.5 56.5,53.5 56.5,54.5 57.5,54.5 57.5,55.5 58.5,55.5 58.5,56.5 
		59.5,56.5 59.5,57.5 61.5,57.5 61.5,58.5 62.5,58.5 62.5,38.5 61.5,38.5 	"/>
	<polygon fill="#23A8F2" points="61.5,58.5 61.5,57.5 59.5,57.5 59.5,56.5 58.5,56.5 58.5,55.5 57.5,55.5 57.5,54.5 56.5,54.5 
		56.5,53.5 54.5,53.5 54.5,52.5 53.5,52.5 53.5,51.5 52.5,51.5 52.5,50.5 51.5,50.5 51.5,49.5 49.5,49.5 49.5,47.5 50.5,47.5 
		50.5,46.5 52.5,46.5 52.5,45.5 53.5,45.5 53.5,44.5 54.5,44.5 54.5,43.5 56.5,43.5 56.5,42.5 57.5,42.5 57.5,41.5 58.5,41.5 
		58.5,40.5 60.5,40.5 60.5,39.5 61.5,39.5 61.5,38.5 62.5,38.5 62.5,24.5 59.5,24.5 59.5,25.5 58.5,25.5 58.5,26.5 57.5,26.5 
		57.5,27.5 56.5,27.5 56.5,28.5 55.5,28.5 55.5,29.5 54.5,29.5 54.5,30.5 52.5,30.5 52.5,31.5 51.5,31.5 51.5,32.5 50.5,32.5 
		50.5,33.5 49.5,33.5 49.5,34.5 48.5,34.5 48.5,35.5 47.5,35.5 47.5,36.5 46.5,36.5 46.5,37.5 45.5,37.5 45.5,38.5 44.5,38.5 
		44.5,39.5 43.5,39.5 43.5,40.5 42.5,40.5 42.5,41.5 40.5,41.5 40.5,42.5 39.5,42.5 39.5,41.5 38.5,41.5 38.5,40.5 37.5,40.5 
		37.5,39.5 36.5,39.5 36.5,38.5 34.5,38.5 34.5,37.5 33.5,37.5 33.5,36.5 33.05,36.5 28.5,36.5 28.5,37.5 27.5,37.5 27.5,38.5 
		26.5,38.5 26.5,42.5 27.5,42.5 27.5,43.5 28.5,43.5 28.5,44.5 29.5,44.5 29.5,45.5 30.5,45.5 30.5,46.5 31.5,46.5 31.5,47.5 
		32.5,47.5 32.5,48.5 33.5,48.5 33.5,49.5 31.5,49.5 31.5,50.5 30.5,50.5 30.5,51.5 29.5,51.5 29.5,52.5 28.5,52.5 28.5,53.5 
		27.5,53.5 27.5,54.5 26.5,54.5 26.5,58.5 27.5,58.5 27.5,59.5 32.05,59.5 33.05,59.5 34.05,59.5 34.5,59.5 34.5,58.5 36.5,58.5 
		36.5,57.5 37.5,57.5 37.5,56.5 38.5,56.5 38.5,55.5 39.5,55.5 39.5,54.5 40.5,54.5 40.5,55.5 41.5,55.5 41.5,56.5 42.5,56.5 
		42.5,57.5 43.5,57.5 43.5,58.5 44.5,58.5 44.5,59.5 45.5,59.5 45.5,60.5 47.5,60.5 47.5,61.5 48.5,61.5 48.5,62.5 49.5,62.5 
		49.5,63.5 50.5,63.5 50.5,64.5 51.5,64.5 51.5,65.5 52.5,65.5 52.5,66.5 54.5,66.5 54.5,67.5 55.5,67.5 55.5,68.5 56.5,68.5 
		56.5,69.5 57.5,69.5 57.5,70.5 58.5,70.5 58.5,71.5 59.5,71.5 59.5,72.5 62.5,72.5 62.5,58.5 	"/>
	<polygon fill="#23A8F2" points="72.5,29.5 71.5,29.5 71.5,28.5 71,28.5 69.5,28.5 69.5,27.5 69,27.5 66.5,27.5 66.5,26.5 
		65.5,26.5 65.5,25.5 65,25.5 63.5,25.5 63.5,24.5 63,24.5 60.5,24.5 60.5,25.5 61.5,25.5 61.5,26.5 62.5,26.5 62.5,30 62.5,37 
		62.5,37 62.5,38 62.5,58.5 61.5,58.5 61.5,57.5 60.5,57.5 60.5,58 60.5,59.5 62.5,59.5 62.5,66 62.5,71.5 64,71.5 65,71.5 
		65.5,71.5 65.5,70.5 67,70.5 67.5,70.5 67.5,69.5 69,69.5 69.5,69.5 69.5,68.5 71,68.5 71.5,68.5 71.5,67.5 73,67.5 73.5,67.5 
		73.5,66.5 74.5,66.5 74.5,30.5 72.5,30.5 	"/>
	<polygon fill="#0086D1" points="62.5,71.5 62.5,66 62.5,59.5 60.5,59.5 60.5,58 60.5,57.5 60,57.5 58.5,57.5 58.5,56.5 57.5,56.5 
		57.5,55.5 56.5,55.5 56.5,54.5 55.5,54.5 55.5,53.5 55,53.5 53.5,53.5 53.5,52.5 52.5,52.5 52.5,51.5 51.5,51.5 51.5,50.5 
		50.5,50.5 50.5,49.5 49.5,49.5 49.5,48.5 49,48.5 49,48.5 47.5,48.5 47.5,48.5 47.5,47.5 46.5,47.5 46.5,47.5 46.5,46.5 46,46.5 
		46,46.5 44.5,46.5 44.5,46.5 44.5,45.5 43.5,45.5 43.5,44.5 42.5,44.5 42.5,43.5 42,43.5 40.5,43.5 40.5,42.5 40,42.5 38.5,42.5 
		38.5,41.5 37.5,41.5 37.5,40.5 36.5,40.5 36.5,39.5 34.5,39.5 34.5,38.5 33.5,38.5 33.5,37.5 32.5,37.5 32.5,36.5 29.5,36.5 
		29.5,37.5 28.5,37.5 28.5,38.5 27.5,38.5 27.5,41.5 28.5,41.5 28.5,42 28.5,43.5 29.5,43.5 29.5,44.5 30.5,44.5 30.5,45.5 
		31.5,45.5 31.5,46.5 32.5,46.5 32.5,47.5 33.5,47.5 33.5,48.5 34.5,48.5 34.5,49.5 35.5,49.5 35.5,50.5 36.5,50.5 36.5,51.5 
		37.5,51.5 37.5,52.5 38.5,52.5 38.5,53.5 40.5,53.5 40.5,54.5 41.5,54.5 41.5,55.5 42.5,55.5 42.5,56.5 43.5,56.5 43.5,57.5 
		44.5,57.5 44.5,58.5 45.5,58.5 45.5,59.5 47,59.5 47.5,59.5 47.5,60.5 48.5,60.5 48.5,61.5 49.5,61.5 49.5,62.5 50.5,62.5 
		50.5,63.5 51.5,63.5 51.5,64.5 53,64.5 53.5,64.5 53.5,66.5 54.5,66.5 54.5,67.5 55.5,67.5 55.5,68.5 56.5,68.5 56.5,69.5 58,69.5 
		58.5,69.5 58.5,70.5 59.5,70.5 59.5,71.5 60.5,71.5 60.5,72.5 63,72.5 63.5,72.5 63.5,71.5 	"/>
	<polygon fill="#0076B8" points="43.5,43.5 43.5,44.5 44.5,44.5 44.5,45.5 45.5,45.5 45.5,46.5 45.5,46.5 47,46.5 47,46.5 
		47.5,46.5 47.5,47.5 47.5,47.5 48.5,47.5 48.5,48.5 48.5,48.5 49.5,48.5 49.5,47.5 51,47.5 51.5,47.5 51.5,46.5 52.5,46.5 
		52.5,45.5 52.5,45.5 53.5,45.5 53.5,44.5 55,44.5 55.5,44.5 55.5,43.5 56.5,43.5 56.5,42.5 56.5,42.5 57.5,42.5 57.5,41.5 
		57.5,41.5 58.5,41.5 58.5,40.5 59.5,40.5 59.5,39.5 59.5,39.5 61,39.5 61.5,39.5 61.5,38.5 61.5,38.5 62.5,38.5 62.5,37.5 
		62.5,37.5 63.5,37.5 63.5,30 63.5,26.5 62.5,26.5 62.5,25.5 62,25.5 60.5,25.5 60.5,25.5 60.5,26.5 60,26.5 58.5,26.5 58.5,27.5 
		57.5,27.5 57.5,28.5 56.5,28.5 56.5,29.5 55.5,29.5 55.5,30.5 54.5,30.5 54.5,31.5 53.5,31.5 53.5,31.5 53.5,32.5 52.5,32.5 
		52.5,33.5 51.5,33.5 51.5,33.5 51.5,34.5 50.5,34.5 50.5,35.5 49.5,35.5 49.5,35.5 49.5,36.5 49,36.5 49,36.5 47.5,36.5 47.5,37.5 
		46.5,37.5 46.5,38.5 45.5,38.5 45.5,39.5 44.5,39.5 44.5,40.5 43.5,40.5 43.5,41.5 42.5,41.5 42.5,43.5 	"/>
	<polygon fill="#0076B8" points="38.5,53.5 37.5,53.5 37.5,52.5 36.5,52.5 36.5,51.5 35.5,51.5 35.5,50.5 34.5,50.5 34.5,49.5 
		34,49.5 32.5,49.5 32.5,50.5 31.5,50.5 31.5,51.5 30.5,51.5 30.5,52.5 29.5,52.5 29.5,53.5 28.5,53.5 28.5,54.5 27.5,54.5 
		27.5,58.5 28.5,58.5 28.5,59.5 30,59.5 31,59.5 33,59.5 33.5,59.5 33.5,58.5 35,58.5 35.5,58.5 35.5,57.5 36.5,57.5 36.5,56.5 
		38,56.5 38.5,56.5 38.5,55 38.5,54 	"/>
</g>
</svg>
